# xmcd
#
# Track frame offsets:
# 150
# 16433
# 34897
# 52432
# 72536
# 87387
# 100945
# 119445
# 136498
# 150172
# 170147
# 192451
# 209676
# 234720
# 252775
# 272269
#
# Disc length: 4011 seconds
#
# Revision: 0
# Processed by: cddbd v1.5.2PL0 Copyright (c) Steve Scherf et al.
# Submitted via: CoinsHifi v1.9h contact@coinshifi.com
#
DISCID=f10fa910
DTITLE=renan luce - repenti
DYEAR=2010
DGENRE=Acoustic
TTITLE0=les voisines
TTITLE1=repenti
TTITLE2=lacrymal circus
TTITLE3=je suis une feuille
TTITLE4=a lettre
TTITLE5=chien mouillé
TTITLE6=monsieur marcel
TTITLE7=24H01
TTITLE8=camelote
TTITLE9=mes racines
TTITLE10=I was here
TTITLE11=nuit blanche
TTITLE12=l'iris et la rose
TTITLE13=les voisines
TTITLE14=monsieur marcel
TTITLE15=la lettre
EXTD=
EXTT0=Instrumental
EXTT1=Instrumental
EXTT2=Instrumental
EXTT3=Instrumental
EXTT4=Instrumental
EXTT5=Instrumental
EXTT6=Instrumental
EXTT7=Instrumental
EXTT8=Instrumental
EXTT9=Instrumental
EXTT10=Instrumental
EXTT11=Instrumental
EXTT12=Instrumental
EXTT13=Instrumental
EXTT14=Instrumental
EXTT15=Instrumental
PLAYORDER=
